<svg xmlns="http://www.w3.org/2000/svg" viewBox="0 0 64 64" role="img" aria-labelledby="title desc">
  <title id="title">Proverba Favicon</title>
  <desc id="desc">Rounded square with spark emblem for Proverba</desc>
  <defs>
    <linearGradient id="favBg" x1="0" x2="1" y1="0" y2="1">
      <stop offset="0%" stop-color="#172554" />
      <stop offset="100%" stop-color="#0f172a" />
    </linearGradient>
    <linearGradient id="favSpark" x1="0" x2="1" y1="1" y2="0">
      <stop offset="0%" stop-color="#fb923c" />
      <stop offset="100%" stop-color="#f97316" />
    </linearGradient>
  </defs>
  <rect width="64" height="64" rx="14" fill="url(#favBg)" />
  <path d="M32 13c-10.493 0-19 8.507-19 19s8.507 19 19 19c6.938 0 13.02-3.713 16.399-9.257 0.86-1.383 1.351-2.928 1.351-4.743 0-6.458-5.242-11.7-11.7-11.7H30v10.53h7.28c2.659 0 4.8-2.141 4.8-4.8 0-2.595-2.08-4.675-4.675-4.675H30c-1.147 0-2.075-.928-2.075-2.075v-6.91c0-1.148.928-2.076 2.075-2.076h11.35c5.15 0 9.325 4.175 9.325 9.325 0 4.995-3.89 9.081-8.802 9.315-1.15.051-1.768 1.357-1.056 2.257 3.51 4.466 5.383 8.446 5.383 12.66 0 7.33-5.94 13.27-13.27 13.27-10.305 0-18.66-8.355-18.66-18.66S21.695 17.34 32 17.34c2.754 0 5.38.568 7.76 1.592 1.043.45 2.245-.107 2.6-1.203.406-1.256-.212-2.604-1.439-3.094A21.9 21.9 0 0 0 32 13z" fill="#cbd5f5" />
  <circle cx="46" cy="18" r="6.3" fill="url(#favSpark)" />
</svg>
